<?xml version="1.0" encoding="UTF-8" standalone="no"?>
<!-- Created with Inkscape (http://www.inkscape.org/) -->

<svg
   xmlns:dc="http://purl.org/dc/elements/1.1/"
   xmlns:cc="http://creativecommons.org/ns#"
   xmlns:rdf="http://www.w3.org/1999/02/22-rdf-syntax-ns#"
   xmlns:svg="http://www.w3.org/2000/svg"
   xmlns="http://www.w3.org/2000/svg"
   xmlns:sodipodi="http://sodipodi.sourceforge.net/DTD/sodipodi-0.dtd"
   xmlns:inkscape="http://www.inkscape.org/namespaces/inkscape"
   width="95.690971mm"
   height="48.800926mm"
   viewBox="0 0 95.690974 48.800924"
   version="1.1"
   id="svg8"
   inkscape:version="0.92.5 (2060ec1f9f, 2020-04-08)"
   sodipodi:docname="casp_logo_social.svg"
   inkscape:export-filename="/home/blair/Desktop/casp_logo_social.png"
   inkscape:export-xdpi="350"
   inkscape:export-ydpi="350">
  <defs
     id="defs2" />
  <sodipodi:namedview
     id="base"
     pagecolor="#000000"
     bordercolor="#666666"
     borderopacity="1.0"
     inkscape:pageopacity="0"
     inkscape:pageshadow="2"
     inkscape:zoom="1.8"
     inkscape:cx="318.93135"
     inkscape:cy="119.76657"
     inkscape:document-units="mm"
     inkscape:current-layer="layer1"
     showgrid="false"
     inkscape:window-width="1920"
     inkscape:window-height="1023"
     inkscape:window-x="0"
     inkscape:window-y="0"
     inkscape:window-maximized="1"
     inkscape:pagecheckerboard="true"
     fit-margin-top="0"
     fit-margin-left="0"
     fit-margin-right="0"
     fit-margin-bottom="0" />
  <metadata
     id="metadata5">
    <rdf:RDF>
      <cc:Work
         rdf:about="">
        <dc:format>image/svg+xml</dc:format>
        <dc:type
           rdf:resource="http://purl.org/dc/dcmitype/StillImage" />
        <dc:title></dc:title>
      </cc:Work>
    </rdf:RDF>
  </metadata>
  <g
     inkscape:label="Layer 1"
     inkscape:groupmode="layer"
     id="layer1"
     transform="translate(-19.10799,-197.99602)">
    <rect
       style="opacity:1;fill:#800000;fill-opacity:1;stroke:none;stroke-width:0.52916664;stroke-miterlimit:4;stroke-dasharray:none;stroke-opacity:1"
       id="rect1056"
       width="95.690971"
       height="48.800926"
       x="19.10799"
       y="197.99602" />
    <g
       id="g1105"
       transform="translate(3.038695,1.5845256)">
      <g
         id="g1054">
        <path
           d="m 33.447576,218.54749 h 0.766052 q -0.04163,1.16273 -0.524579,1.82935 -0.482945,0.66663 -1.428021,0.66663 -0.911767,0 -1.448836,-0.85783 -0.532906,-0.863 -0.532906,-2.31511 v -1.39009 q 0,-1.44694 0.541233,-2.30477 0.545395,-0.863 1.511286,-0.863 0.882625,0 1.361407,0.65113 0.478783,0.65111 0.520416,1.86551 h -0.766052 q -0.04579,-0.88883 -0.299759,-1.2919 -0.253963,-0.40824 -0.816012,-0.40824 -0.666132,0 -0.978381,0.64078 -0.308086,0.64079 -0.308086,1.70015 v 1.40043 q 0,0.98703 0.270616,1.67432 0.274779,0.68729 0.945074,0.68729 0.628663,0 0.878463,-0.39273 0.249798,-0.39274 0.308085,-1.29192 z"
           style="font-style:normal;font-variant:normal;font-weight:normal;font-stretch:normal;font-size:9.499403px;line-height:1.25;font-family:'Roboto Condensed';-inkscape-font-specification:'Roboto Condensed, ';letter-spacing:0px;word-spacing:0px;fill:#ffffff;fill-opacity:1;stroke:none;stroke-width:0.2374851"
           id="path820"
           inkscape:connector-curvature="0" />
        <path
           d="m 34.771514,220.94011 1.952598,-7.52408 h 0.657805 l 1.952599,7.52408 h -0.782704 l -0.474619,-1.96887 h -2.048356 l -0.474619,1.96887 z m 1.457163,-2.78535 h 1.648676 l -0.824338,-3.41581 z"
           style="font-style:normal;font-variant:normal;font-weight:normal;font-stretch:normal;font-size:9.499403px;line-height:1.25;font-family:'Roboto Condensed';-inkscape-font-specification:'Roboto Condensed, ';letter-spacing:0px;word-spacing:0px;fill:#ffffff;fill-opacity:1;stroke:none;stroke-width:0.2374851"
           id="path822"
           inkscape:connector-curvature="0" />
        <path
           d="m 40.92907,217.98939 v 2.95072 h -0.766052 v -7.52408 h 1.931783 q 0.878461,0 1.344753,0.64595 0.470456,0.64596 0.470456,1.64848 0,1.0852 -0.466292,1.67949 -0.462129,0.59427 -1.336427,0.59944 z m 0,-3.75688 v 2.94556 h 1.165731 q 0.557885,0 0.803521,-0.40824 0.245636,-0.40824 0.245636,-1.04903 0,-0.57878 -0.245636,-1.03354 -0.245636,-0.45475 -0.803521,-0.45475 z"
           style="font-style:normal;font-variant:normal;font-weight:normal;font-stretch:normal;font-size:9.499403px;line-height:1.25;font-family:'Roboto Condensed';-inkscape-font-specification:'Roboto Condensed, ';letter-spacing:0px;word-spacing:0px;fill:#ffffff;fill-opacity:1;stroke:none;stroke-width:0.2374851"
           id="path824"
           inkscape:connector-curvature="0" />
        <path
           d="m 45.687749,213.41603 v 7.52408 h -0.766052 v -7.52408 z"
           style="font-style:normal;font-variant:normal;font-weight:normal;font-stretch:normal;font-size:9.499403px;line-height:1.25;font-family:'Roboto Condensed';-inkscape-font-specification:'Roboto Condensed, ';letter-spacing:0px;word-spacing:0px;fill:#ffffff;fill-opacity:1;stroke:none;stroke-width:0.2374851"
           id="path826"
           inkscape:connector-curvature="0" />
        <path
           d="m 46.499599,214.23251 v -0.81648 h 3.942667 v 0.81648 h -1.594553 v 6.7076 h -0.757725 v -6.7076 z"
           style="font-style:normal;font-variant:normal;font-weight:normal;font-stretch:normal;font-size:9.499403px;line-height:1.25;font-family:'Roboto Condensed';-inkscape-font-specification:'Roboto Condensed, ';letter-spacing:0px;word-spacing:0px;fill:#ffffff;fill-opacity:1;stroke:none;stroke-width:0.2374851"
           id="path828"
           inkscape:connector-curvature="0" />
        <path
           d="m 50.533859,220.94011 1.952599,-7.52408 h 0.657805 l 1.9526,7.52408 h -0.782706 l -0.474618,-1.96887 h -2.048356 l -0.474619,1.96887 z m 1.457164,-2.78535 h 1.648676 l -0.824338,-3.41581 z"
           style="font-style:normal;font-variant:normal;font-weight:normal;font-stretch:normal;font-size:9.499403px;line-height:1.25;font-family:'Roboto Condensed';-inkscape-font-specification:'Roboto Condensed, ';letter-spacing:0px;word-spacing:0px;fill:#ffffff;fill-opacity:1;stroke:none;stroke-width:0.2374851"
           id="path830"
           inkscape:connector-curvature="0" />
        <path
           d="m 59.068673,220.1288 v 0.81131 h -3.14331 v -7.52408 h 0.766051 v 6.71277 z"
           style="font-style:normal;font-variant:normal;font-weight:normal;font-stretch:normal;font-size:9.499403px;line-height:1.25;font-family:'Roboto Condensed';-inkscape-font-specification:'Roboto Condensed, ';letter-spacing:0px;word-spacing:0px;fill:#ffffff;fill-opacity:1;stroke:none;stroke-width:0.2374851"
           id="path832"
           inkscape:connector-curvature="0" />
        <path
           d="m 61.462584,220.94011 1.952599,-7.52408 h 0.657805 l 1.9526,7.52408 h -0.782706 l -0.474618,-1.96887 h -2.048356 l -0.474619,1.96887 z m 1.457163,-2.78535 h 1.648677 l -0.824339,-3.41581 z"
           style="font-style:normal;font-variant:normal;font-weight:normal;font-stretch:normal;font-size:9.499403px;line-height:1.25;font-family:'Roboto Condensed';-inkscape-font-specification:'Roboto Condensed, ';letter-spacing:0px;word-spacing:0px;fill:#ffffff;fill-opacity:1;stroke:none;stroke-width:0.2374851"
           id="path834"
           inkscape:connector-curvature="0" />
        <path
           d="m 69.506128,219.03842 q 0,-0.5271 -0.22482,-0.83716 -0.224819,-0.31005 -0.961728,-0.63562 -0.736908,-0.33073 -1.169895,-0.83716 -0.432985,-0.50642 -0.432985,-1.36942 0,-0.8785 0.470456,-1.46244 0.470456,-0.58395 1.26565,-0.58395 0.886788,0 1.353081,0.69763 0.466292,0.69764 0.466292,1.57614 h -0.766051 q 0,-0.63045 -0.2498,-1.04386 -0.2498,-0.41341 -0.803522,-0.41341 -0.503762,0 -0.736908,0.35139 -0.228983,0.34624 -0.228983,0.86816 0,0.47543 0.270616,0.79066 0.274779,0.31522 0.849318,0.57361 0.890952,0.36172 1.278141,0.89917 0.387189,0.53743 0.387189,1.41593 0,0.91983 -0.482946,1.46761 -0.478782,0.54777 -1.298957,0.54777 -0.474619,0 -0.920094,-0.25839 -0.445476,-0.25838 -0.732745,-0.76481 -0.283107,-0.51159 -0.283107,-1.2609 h 0.766052 q 0,0.76997 0.341392,1.12137 0.345557,0.3514 0.828502,0.3514 0.499599,0 0.757725,-0.32039 0.258127,-0.32555 0.258127,-0.87333 z"
           style="font-style:normal;font-variant:normal;font-weight:normal;font-stretch:normal;font-size:9.499403px;line-height:1.25;font-family:'Roboto Condensed';-inkscape-font-specification:'Roboto Condensed, ';letter-spacing:0px;word-spacing:0px;fill:#ffffff;fill-opacity:1;stroke:none;stroke-width:0.2374851"
           id="path836"
           inkscape:connector-curvature="0" />
        <path
           d="m 73.998354,217.98939 v 2.95072 h -0.766052 v -7.52408 h 1.931783 q 0.878462,0 1.344754,0.64595 0.470456,0.64596 0.470456,1.64848 0,1.0852 -0.466293,1.67949 -0.462129,0.59427 -1.336427,0.59944 z m 0,-3.75688 v 2.94556 h 1.165731 q 0.557886,0 0.803522,-0.40824 0.245636,-0.40824 0.245636,-1.04903 0,-0.57878 -0.245636,-1.03354 -0.245636,-0.45475 -0.803522,-0.45475 z"
           style="font-style:normal;font-variant:normal;font-weight:normal;font-stretch:normal;font-size:9.499403px;line-height:1.25;font-family:'Roboto Condensed';-inkscape-font-specification:'Roboto Condensed, ';letter-spacing:0px;word-spacing:0px;fill:#ffffff;fill-opacity:1;stroke:none;stroke-width:0.2374851"
           id="path838"
           inkscape:connector-curvature="0" />
        <path
           d="m 81.900343,217.83437 q 0,1.5968 -0.545396,2.40294 -0.545395,0.80616 -1.486306,0.80616 -0.895115,0 -1.461327,-0.78548 -0.562049,-0.78549 -0.578702,-2.33061 v -1.40043 q 0,-1.59164 0.562049,-2.40295 0.562048,-0.81133 1.473816,-0.81133 0.932585,0 1.47798,0.79582 0.545396,0.79581 0.557886,2.34611 z m -0.757725,-1.31776 q 0,-1.24023 -0.328903,-1.79834 -0.328902,-0.5581 -0.949238,-0.5581 -0.591192,0 -0.936747,0.5581 -0.341394,0.55811 -0.341394,1.79834 v 1.31776 q 0,1.2454 0.345557,1.80867 0.349719,0.5581 0.936748,0.5581 0.624499,0 0.945074,-0.55293 0.32474,-0.55294 0.328903,-1.78284 z"
           style="font-style:normal;font-variant:normal;font-weight:normal;font-stretch:normal;font-size:9.499403px;line-height:1.25;font-family:'Roboto Condensed';-inkscape-font-specification:'Roboto Condensed, ';letter-spacing:0px;word-spacing:0px;fill:#ffffff;fill-opacity:1;stroke:none;stroke-width:0.2374851"
           id="path840"
           inkscape:connector-curvature="0" />
        <path
           d="m 88.699052,213.41603 -1.203201,7.52408 H 86.80474 l -1.007526,-5.48286 -0.06245,-0.44442 -0.06245,0.44442 -1.053321,5.48286 h -0.686949 l -1.207364,-7.52408 h 0.761888 l 0.757726,5.14697 0.0791,0.84232 0.120736,-0.73897 0.970054,-5.25032 h 0.632826 l 0.940911,5.25032 0.120736,0.76482 0.08743,-0.87334 0.741072,-5.1418 z"
           style="font-style:normal;font-variant:normal;font-weight:normal;font-stretch:normal;font-size:9.499403px;line-height:1.25;font-family:'Roboto Condensed';-inkscape-font-specification:'Roboto Condensed, ';letter-spacing:0px;word-spacing:0px;fill:#ffffff;fill-opacity:1;stroke:none;stroke-width:0.2374851"
           id="path842"
           inkscape:connector-curvature="0" />
        <path
           d="m 89.577514,220.94011 v -7.52408 h 3.218246 v 0.81648 h -2.452192 v 2.41847 h 2.13995 v 0.81131 h -2.13995 v 2.66651 h 2.493831 v 0.81131 z"
           style="font-style:normal;font-variant:normal;font-weight:normal;font-stretch:normal;font-size:9.499403px;line-height:1.25;font-family:'Roboto Condensed';-inkscape-font-specification:'Roboto Condensed, ';letter-spacing:0px;word-spacing:0px;fill:#ffffff;fill-opacity:1;stroke:none;stroke-width:0.2374851"
           id="path844"
           inkscape:connector-curvature="0" />
        <path
           d="m 96.730102,220.94011 -1.0783,-3.0489 h -1.065807 v 3.0489 h -0.766058 v -7.52408 h 1.694481 q 0.903433,0 1.353077,0.56844 0.453799,0.56328 0.453799,1.68981 0,1.45729 -0.949237,1.99989 l 1.178219,3.20393 v 0.0621 z m -2.144107,-6.7076 v 2.84737 h 0.920093 q 0.524574,0 0.786865,-0.40824 0.262291,-0.41341 0.262291,-0.99736 0,-0.65111 -0.237311,-1.04386 -0.237303,-0.39791 -0.803515,-0.39791 z"
           style="font-style:normal;font-variant:normal;font-weight:normal;font-stretch:normal;font-size:9.499403px;line-height:1.25;font-family:'Roboto Condensed';-inkscape-font-specification:'Roboto Condensed, ';letter-spacing:0px;word-spacing:0px;fill:#ffffff;fill-opacity:1;stroke:none;stroke-width:0.2374851"
           id="path846"
           inkscape:connector-curvature="0" />
      </g>
      <g
         transform="translate(-76.369509,11.90625)"
         id="g1038">
        <path
           d="m 105.25387,213.6806 v -0.32659 h 1.77031 v 0.32659 h -0.71598 v 2.68304 h -0.34022 v -2.68304 z"
           style="font-style:normal;font-variant:normal;font-weight:normal;font-stretch:normal;font-size:4.02583218px;line-height:1.25;font-family:'Roboto Condensed';-inkscape-font-specification:'Roboto Condensed, ';letter-spacing:0px;word-spacing:0px;fill:#ffffff;fill-opacity:1;stroke:none;stroke-width:0.25161451"
           id="path850"
           inkscape:connector-curvature="0" />
        <path
           d="m 109.14406,215.12134 q 0,0.63872 -0.24489,0.96118 -0.24488,0.32247 -0.66737,0.32247 -0.40191,0 -0.65615,-0.3142 -0.25237,-0.31419 -0.25984,-0.93224 v -0.56018 q 0,-0.63665 0.25236,-0.96118 0.25237,-0.32453 0.66176,-0.32453 0.41875,0 0.66363,0.31834 0.24489,0.31832 0.2505,0.93843 z m -0.34022,-0.5271 q 0,-0.4961 -0.14769,-0.71934 -0.14768,-0.22324 -0.42622,-0.22324 -0.26545,0 -0.42061,0.22324 -0.15329,0.22324 -0.15329,0.71934 v 0.5271 q 0,0.49817 0.15516,0.72347 0.15703,0.22324 0.42061,0.22324 0.28041,0 0.42435,-0.22117 0.14582,-0.22118 0.14769,-0.71313 z"
           style="font-style:normal;font-variant:normal;font-weight:normal;font-stretch:normal;font-size:4.02583218px;line-height:1.25;font-family:'Roboto Condensed';-inkscape-font-specification:'Roboto Condensed, ';letter-spacing:0px;word-spacing:0px;fill:#ffffff;fill-opacity:1;stroke:none;stroke-width:0.25161451"
           id="path852"
           inkscape:connector-curvature="0" />
        <path
           d="m 112.19677,213.35401 -0.54026,3.00963 h -0.31031 l -0.45239,-2.19315 -0.0281,-0.17776 -0.0281,0.17776 -0.47295,2.19315 h -0.30846 l -0.54211,-3.00963 h 0.34209 l 0.34023,2.05878 0.0355,0.33694 0.0542,-0.29559 0.43556,-2.10013 h 0.28415 l 0.42247,2.10013 0.0542,0.30592 0.0393,-0.34933 0.33275,-2.05672 z"
           style="font-style:normal;font-variant:normal;font-weight:normal;font-stretch:normal;font-size:4.02583218px;line-height:1.25;font-family:'Roboto Condensed';-inkscape-font-specification:'Roboto Condensed, ';letter-spacing:0px;word-spacing:0px;fill:#ffffff;fill-opacity:1;stroke:none;stroke-width:0.25161451"
           id="path854"
           inkscape:connector-curvature="0" />
        <path
           d="m 112.29772,216.36364 0.87674,-3.00963 h 0.29536 l 0.87674,3.00963 h -0.35144 l -0.21311,-0.78754 h -0.91974 l -0.21311,0.78754 z m 0.65428,-1.11414 h 0.74028 l -0.37014,-1.36632 z"
           style="font-style:normal;font-variant:normal;font-weight:normal;font-stretch:normal;font-size:4.02583218px;line-height:1.25;font-family:'Roboto Condensed';-inkscape-font-specification:'Roboto Condensed, ';letter-spacing:0px;word-spacing:0px;fill:#ffffff;fill-opacity:1;stroke:none;stroke-width:0.25161451"
           id="path856"
           inkscape:connector-curvature="0" />
        <path
           d="m 116.02714,216.36364 -0.48417,-1.21956 h -0.47857 v 1.21956 h -0.34396 v -3.00963 h 0.76084 q 0.40566,0 0.60755,0.22737 0.20376,0.22531 0.20376,0.67593 0,0.58291 -0.42622,0.79996 l 0.52904,1.28156 v 0.0248 z m -0.96274,-2.68304 v 1.13895 h 0.41314 q 0.23554,0 0.35332,-0.1633 0.11777,-0.16537 0.11777,-0.39894 0,-0.26045 -0.10656,-0.41754 -0.10656,-0.15917 -0.36079,-0.15917 z"
           style="font-style:normal;font-variant:normal;font-weight:normal;font-stretch:normal;font-size:4.02583218px;line-height:1.25;font-family:'Roboto Condensed';-inkscape-font-specification:'Roboto Condensed, ';letter-spacing:0px;word-spacing:0px;fill:#ffffff;fill-opacity:1;stroke:none;stroke-width:0.25161451"
           id="path858"
           inkscape:connector-curvature="0" />
        <path
           d="m 116.75059,216.36364 v -3.00963 h 0.64868 q 0.45987,0 0.7328,0.31832 0.27293,0.31626 0.27293,0.93225 v 0.51056 q 0,0.61599 -0.2748,0.93224 -0.2748,0.31626 -0.76271,0.31626 z m 0.34397,-2.68304 v 2.35851 h 0.27293 q 0.36266,0 0.52717,-0.22737 0.16637,-0.22945 0.17011,-0.67593 v -0.53537 q 0,-0.47749 -0.1645,-0.69866 -0.16451,-0.22118 -0.501,-0.22118 z"
           style="font-style:normal;font-variant:normal;font-weight:normal;font-stretch:normal;font-size:4.02583218px;line-height:1.25;font-family:'Roboto Condensed';-inkscape-font-specification:'Roboto Condensed, ';letter-spacing:0px;word-spacing:0px;fill:#ffffff;fill-opacity:1;stroke:none;stroke-width:0.25161451"
           id="path860"
           inkscape:connector-curvature="0" />
        <path
           d="m 119.60141,216.36364 0.87674,-3.00963 h 0.29536 l 0.87674,3.00963 h -0.35144 l -0.21311,-0.78754 h -0.91974 l -0.21311,0.78754 z m 0.65428,-1.11414 h 0.74028 l -0.37014,-1.36632 z"
           style="font-style:normal;font-variant:normal;font-weight:normal;font-stretch:normal;font-size:4.02583218px;line-height:1.25;font-family:'Roboto Condensed';-inkscape-font-specification:'Roboto Condensed, ';letter-spacing:0px;word-spacing:0px;fill:#ffffff;fill-opacity:1;stroke:none;stroke-width:0.25161451"
           id="path862"
           inkscape:connector-curvature="0" />
        <path
           d="m 124.68053,213.35401 v 3.00963 h -0.34584 l -1.08985,-2.3213 v 2.3213 h -0.34397 v -3.00963 h 0.34397 l 1.09546,2.3275 v -2.3275 z"
           style="font-style:normal;font-variant:normal;font-weight:normal;font-stretch:normal;font-size:4.02583218px;line-height:1.25;font-family:'Roboto Condensed';-inkscape-font-specification:'Roboto Condensed, ';letter-spacing:0px;word-spacing:0px;fill:#ffffff;fill-opacity:1;stroke:none;stroke-width:0.25161451"
           id="path864"
           inkscape:connector-curvature="0" />
        <path
           d="m 125.27312,216.36364 v -3.00963 h 1.44504 v 0.32659 h -1.10107 v 0.96739 h 0.96087 v 0.32452 h -0.96087 v 1.0666 h 1.11976 v 0.32453 z"
           style="font-style:normal;font-variant:normal;font-weight:normal;font-stretch:normal;font-size:4.02583218px;line-height:1.25;font-family:'Roboto Condensed';-inkscape-font-specification:'Roboto Condensed, ';letter-spacing:0px;word-spacing:0px;fill:#ffffff;fill-opacity:1;stroke:none;stroke-width:0.25161451"
           id="path866"
           inkscape:connector-curvature="0" />
        <path
           d="m 129.69796,213.35401 -0.54026,3.00963 h -0.31031 l -0.4524,-2.19315 -0.0281,-0.17776 -0.0281,0.17776 -0.47296,2.19315 h -0.30845 l -0.54212,-3.00963 h 0.3421 l 0.34022,2.05878 0.0356,0.33694 0.0542,-0.29559 0.43557,-2.10013 h 0.28414 l 0.42248,2.10013 0.0542,0.30592 0.0393,-0.34933 0.33275,-2.05672 z"
           style="font-style:normal;font-variant:normal;font-weight:normal;font-stretch:normal;font-size:4.02583218px;line-height:1.25;font-family:'Roboto Condensed';-inkscape-font-specification:'Roboto Condensed, ';letter-spacing:0px;word-spacing:0px;fill:#ffffff;fill-opacity:1;stroke:none;stroke-width:0.25161451"
           id="path868"
           inkscape:connector-curvature="0" />
        <path
           d="m 132.33379,215.40659 h 0.34397 q -0.0187,0.4651 -0.23554,0.73175 -0.21685,0.26665 -0.6412,0.26665 -0.4094,0 -0.65055,-0.34314 -0.23928,-0.34519 -0.23928,-0.92604 v -0.55604 q 0,-0.57878 0.24302,-0.92191 0.24489,-0.3452 0.67859,-0.3452 0.3963,0 0.61128,0.26046 0.21498,0.26045 0.23368,0.74621 h -0.34397 q -0.0205,-0.35554 -0.13459,-0.51677 -0.11404,-0.1633 -0.3664,-0.1633 -0.2991,0 -0.43931,0.25632 -0.13834,0.25631 -0.13834,0.68006 v 0.56017 q 0,0.39481 0.12152,0.66972 0.12338,0.27493 0.42435,0.27493 0.28228,0 0.39444,-0.1571 0.11216,-0.1571 0.13833,-0.51677 z"
           style="font-style:normal;font-variant:normal;font-weight:normal;font-stretch:normal;font-size:4.02583218px;line-height:1.25;font-family:'Roboto Condensed';-inkscape-font-specification:'Roboto Condensed, ';letter-spacing:0px;word-spacing:0px;fill:#ffffff;fill-opacity:1;stroke:none;stroke-width:0.25161451"
           id="path870"
           inkscape:connector-curvature="0" />
        <path
           d="m 134.91168,215.12134 q 0,0.63872 -0.24489,0.96118 -0.2449,0.32247 -0.66737,0.32247 -0.40193,0 -0.65616,-0.3142 -0.25236,-0.31419 -0.25984,-0.93224 v -0.56018 q 0,-0.63665 0.25236,-0.96118 0.25238,-0.32453 0.66176,-0.32453 0.41875,0 0.66364,0.31834 0.24489,0.31832 0.2505,0.93843 z m -0.34024,-0.5271 q 0,-0.4961 -0.14767,-0.71934 -0.14768,-0.22324 -0.42623,-0.22324 -0.26544,0 -0.42061,0.22324 -0.15329,0.22324 -0.15329,0.71934 v 0.5271 q 0,0.49817 0.15517,0.72347 0.15702,0.22324 0.42061,0.22324 0.28041,0 0.42435,-0.22117 0.14581,-0.22118 0.14767,-0.71313 z"
           style="font-style:normal;font-variant:normal;font-weight:normal;font-stretch:normal;font-size:4.02583218px;line-height:1.25;font-family:'Roboto Condensed';-inkscape-font-specification:'Roboto Condensed, ';letter-spacing:0px;word-spacing:0px;fill:#ffffff;fill-opacity:1;stroke:none;stroke-width:0.25161451"
           id="path872"
           inkscape:connector-curvature="0" />
        <path
           d="m 136.63338,215.60296 q 0,-0.21084 -0.10095,-0.33486 -0.10095,-0.12402 -0.43182,-0.25425 -0.33089,-0.13229 -0.52531,-0.33485 -0.19441,-0.20258 -0.19441,-0.54778 0,-0.3514 0.21125,-0.58498 0.21123,-0.23358 0.56828,-0.23358 0.39818,0 0.60756,0.27906 0.20937,0.27905 0.20937,0.63045 h -0.34397 q 0,-0.25218 -0.11216,-0.41754 -0.11217,-0.16537 -0.3608,-0.16537 -0.22619,0 -0.33088,0.14056 -0.10281,0.13849 -0.10281,0.34726 0,0.19017 0.12151,0.31626 0.12338,0.12609 0.38135,0.22945 0.40005,0.14469 0.5739,0.35967 0.17386,0.21497 0.17386,0.56637 0,0.36794 -0.21685,0.58705 -0.21498,0.21911 -0.58325,0.21911 -0.21311,0 -0.41314,-0.10337 -0.20002,-0.10337 -0.32901,-0.30593 -0.12712,-0.20464 -0.12712,-0.50436 h 0.34397 q 0,0.308 0.15329,0.44856 0.15516,0.14056 0.37201,0.14056 0.22433,0 0.34023,-0.12816 0.1159,-0.13023 0.1159,-0.34934 z"
           style="font-style:normal;font-variant:normal;font-weight:normal;font-stretch:normal;font-size:4.02583218px;line-height:1.25;font-family:'Roboto Condensed';-inkscape-font-specification:'Roboto Condensed, ';letter-spacing:0px;word-spacing:0px;fill:#ffffff;fill-opacity:1;stroke:none;stroke-width:0.25161451"
           id="path874"
           inkscape:connector-curvature="0" />
        <path
           d="m 138.58128,215.80761 0.71036,-2.4536 h 0.43931 v 3.00963 h -0.3421 v -1.17409 l 0.0318,-1.16581 -0.71037,2.3399 h -0.26172 l -0.71037,-2.34405 0.0318,1.16996 v 1.17409 h -0.3421 v -3.00963 h 0.44118 z"
           style="font-style:normal;font-variant:normal;font-weight:normal;font-stretch:normal;font-size:4.02583218px;line-height:1.25;font-family:'Roboto Condensed';-inkscape-font-specification:'Roboto Condensed, ';letter-spacing:0px;word-spacing:0px;fill:#ffffff;fill-opacity:1;stroke:none;stroke-width:0.25161451"
           id="path876"
           inkscape:connector-curvature="0" />
        <path
           d="m 142.09011,215.12134 q 0,0.63872 -0.24488,0.96118 -0.24489,0.32247 -0.66738,0.32247 -0.40191,0 -0.65615,-0.3142 -0.25237,-0.31419 -0.25984,-0.93224 v -0.56018 q 0,-0.63665 0.25236,-0.96118 0.25237,-0.32453 0.66177,-0.32453 0.41874,0 0.66363,0.31834 0.24488,0.31832 0.25049,0.93843 z m -0.34022,-0.5271 q 0,-0.4961 -0.14769,-0.71934 -0.14768,-0.22324 -0.42621,-0.22324 -0.26546,0 -0.42062,0.22324 -0.15329,0.22324 -0.15329,0.71934 v 0.5271 q 0,0.49817 0.15516,0.72347 0.15703,0.22324 0.42061,0.22324 0.28041,0 0.42435,-0.22117 0.14582,-0.22118 0.14769,-0.71313 z"
           style="font-style:normal;font-variant:normal;font-weight:normal;font-stretch:normal;font-size:4.02583218px;line-height:1.25;font-family:'Roboto Condensed';-inkscape-font-specification:'Roboto Condensed, ';letter-spacing:0px;word-spacing:0px;fill:#ffffff;fill-opacity:1;stroke:none;stroke-width:0.25161451"
           id="path878"
           inkscape:connector-curvature="0" />
        <path
           d="m 144.03241,216.03911 v 0.32453 h -1.41139 v -3.00963 h 0.34397 v 2.6851 z"
           style="font-style:normal;font-variant:normal;font-weight:normal;font-stretch:normal;font-size:4.02583218px;line-height:1.25;font-family:'Roboto Condensed';-inkscape-font-specification:'Roboto Condensed, ';letter-spacing:0px;word-spacing:0px;fill:#ffffff;fill-opacity:1;stroke:none;stroke-width:0.25161451"
           id="path880"
           inkscape:connector-curvature="0" />
        <path
           d="m 146.0906,215.12134 q 0,0.63872 -0.24489,0.96118 -0.24489,0.32247 -0.66737,0.32247 -0.40191,0 -0.65615,-0.3142 -0.25237,-0.31419 -0.25985,-0.93224 v -0.56018 q 0,-0.63665 0.25236,-0.96118 0.25238,-0.32453 0.66178,-0.32453 0.41873,0 0.66362,0.31834 0.24489,0.31832 0.2505,0.93843 z m -0.34022,-0.5271 q 0,-0.4961 -0.14769,-0.71934 -0.14768,-0.22324 -0.42621,-0.22324 -0.26546,0 -0.42062,0.22324 -0.15329,0.22324 -0.15329,0.71934 v 0.5271 q 0,0.49817 0.15516,0.72347 0.15703,0.22324 0.42061,0.22324 0.28041,0 0.42435,-0.22117 0.14581,-0.22118 0.14769,-0.71313 z"
           style="font-style:normal;font-variant:normal;font-weight:normal;font-stretch:normal;font-size:4.02583218px;line-height:1.25;font-family:'Roboto Condensed';-inkscape-font-specification:'Roboto Condensed, ';letter-spacing:0px;word-spacing:0px;fill:#ffffff;fill-opacity:1;stroke:none;stroke-width:0.25161451"
           id="path882"
           inkscape:connector-curvature="0" />
        <path
           d="m 148.32639,214.86502 v 1.12242 q -0.0449,0.0661 -0.13646,0.16537 -0.0898,0.0992 -0.25238,0.17569 -0.16263,0.0764 -0.42621,0.0764 -0.42248,0 -0.68794,-0.3142 -0.26358,-0.31419 -0.26358,-0.95084 v -0.56426 q 0,-0.63045 0.22807,-0.94672 0.22993,-0.31626 0.68793,-0.31626 0.39631,0 0.61316,0.24392 0.21684,0.24391 0.23741,0.67799 h -0.34397 q -0.0205,-0.27905 -0.14207,-0.43615 -0.11964,-0.15916 -0.36453,-0.15916 -0.31032,0 -0.44118,0.22945 -0.12898,0.22737 -0.13085,0.68833 v 0.5829 q 0,0.47957 0.16451,0.71107 0.16637,0.22945 0.44491,0.22945 0.23741,0 0.33274,-0.0785 0.0954,-0.0786 0.13834,-0.1199 v -0.69452 h -0.49912 v -0.32247 z"
           style="font-style:normal;font-variant:normal;font-weight:normal;font-stretch:normal;font-size:4.02583218px;line-height:1.25;font-family:'Roboto Condensed';-inkscape-font-specification:'Roboto Condensed, ';letter-spacing:0px;word-spacing:0px;fill:#ffffff;fill-opacity:1;stroke:none;stroke-width:0.25161451"
           id="path884"
           inkscape:connector-curvature="0" />
        <path
           d="m 149.03675,213.35401 0.55521,1.51101 0.55708,-1.51101 h 0.38883 l -0.77392,1.88515 v 1.12448 h -0.34397 v -1.12448 l -0.77392,-1.88515 z"
           style="font-style:normal;font-variant:normal;font-weight:normal;font-stretch:normal;font-size:4.02583218px;line-height:1.25;font-family:'Roboto Condensed';-inkscape-font-specification:'Roboto Condensed, ';letter-spacing:0px;word-spacing:0px;fill:#ffffff;fill-opacity:1;stroke:none;stroke-width:0.25161451"
           id="path886"
           inkscape:connector-curvature="0" />
        <path
           d="m 153.54198,215.12134 q 0,0.63872 -0.2449,0.96118 -0.24489,0.32247 -0.66736,0.32247 -0.40193,0 -0.65616,-0.3142 -0.25236,-0.31419 -0.25985,-0.93224 v -0.56018 q 0,-0.63665 0.25237,-0.96118 0.25237,-0.32453 0.66176,-0.32453 0.41875,0 0.66364,0.31834 0.24489,0.31832 0.2505,0.93843 z m -0.34024,-0.5271 q 0,-0.4961 -0.14767,-0.71934 -0.14769,-0.22324 -0.42623,-0.22324 -0.26544,0 -0.42061,0.22324 -0.15329,0.22324 -0.15329,0.71934 v 0.5271 q 0,0.49817 0.15516,0.72347 0.15703,0.22324 0.42062,0.22324 0.2804,0 0.42435,-0.22117 0.14581,-0.22118 0.14767,-0.71313 z"
           style="font-style:normal;font-variant:normal;font-weight:normal;font-stretch:normal;font-size:4.02583218px;line-height:1.25;font-family:'Roboto Condensed';-inkscape-font-specification:'Roboto Condensed, ';letter-spacing:0px;word-spacing:0px;fill:#ffffff;fill-opacity:1;stroke:none;stroke-width:0.25161451"
           id="path888"
           inkscape:connector-curvature="0" />
        <path
           d="m 154.07287,216.36364 v -3.00963 h 1.417 v 0.32659 h -1.07303 v 1.02733 h 0.91788 v 0.32659 h -0.91788 v 1.32912 z"
           style="font-style:normal;font-variant:normal;font-weight:normal;font-stretch:normal;font-size:4.02583218px;line-height:1.25;font-family:'Roboto Condensed';-inkscape-font-specification:'Roboto Condensed, ';letter-spacing:0px;word-spacing:0px;fill:#ffffff;fill-opacity:1;stroke:none;stroke-width:0.25161451"
           id="path890"
           inkscape:connector-curvature="0" />
        <path
           d="m 158.15562,215.40659 h 0.34396 q -0.0186,0.4651 -0.23554,0.73175 -0.21685,0.26665 -0.6412,0.26665 -0.4094,0 -0.65055,-0.34314 -0.23928,-0.34519 -0.23928,-0.92604 v -0.55604 q 0,-0.57878 0.24303,-0.92191 0.24489,-0.3452 0.67858,-0.3452 0.39632,0 0.61129,0.26046 0.21498,0.26045 0.23367,0.74621 h -0.34396 q -0.0205,-0.35554 -0.1346,-0.51677 -0.11404,-0.1633 -0.3664,-0.1633 -0.2991,0 -0.43931,0.25632 -0.13833,0.25631 -0.13833,0.68006 v 0.56017 q 0,0.39481 0.12151,0.66972 0.12338,0.27493 0.42435,0.27493 0.28228,0 0.39444,-0.1571 0.11217,-0.1571 0.13834,-0.51677 z"
           style="font-style:normal;font-variant:normal;font-weight:normal;font-stretch:normal;font-size:4.02583218px;line-height:1.25;font-family:'Roboto Condensed';-inkscape-font-specification:'Roboto Condensed, ';letter-spacing:0px;word-spacing:0px;fill:#ffffff;fill-opacity:1;stroke:none;stroke-width:0.25161451"
           id="path892"
           inkscape:connector-curvature="0" />
        <path
           d="m 158.75008,216.36364 0.87674,-3.00963 h 0.29537 l 0.87674,3.00963 h -0.35145 l -0.2131,-0.78754 h -0.91974 l -0.21311,0.78754 z m 0.65429,-1.11414 h 0.74027 l -0.37013,-1.36632 z"
           style="font-style:normal;font-variant:normal;font-weight:normal;font-stretch:normal;font-size:4.02583218px;line-height:1.25;font-family:'Roboto Condensed';-inkscape-font-specification:'Roboto Condensed, ';letter-spacing:0px;word-spacing:0px;fill:#ffffff;fill-opacity:1;stroke:none;stroke-width:0.25161451"
           id="path894"
           inkscape:connector-curvature="0" />
        <path
           d="m 161.5149,215.18336 v 1.18028 h -0.34397 v -3.00963 h 0.8674 q 0.39444,0 0.60381,0.25837 0.21125,0.25839 0.21125,0.65939 0,0.43409 -0.20937,0.6718 -0.20751,0.23772 -0.60008,0.23979 z m 0,-1.50276 v 1.17822 h 0.52343 q 0.2505,0 0.36079,-0.16329 0.11029,-0.1633 0.11029,-0.41961 0,-0.23152 -0.11029,-0.41342 -0.11029,-0.1819 -0.36079,-0.1819 z"
           style="font-style:normal;font-variant:normal;font-weight:normal;font-stretch:normal;font-size:4.02583218px;line-height:1.25;font-family:'Roboto Condensed';-inkscape-font-specification:'Roboto Condensed, ';letter-spacing:0px;word-spacing:0px;fill:#ffffff;fill-opacity:1;stroke:none;stroke-width:0.25161451"
           id="path896"
           inkscape:connector-curvature="0" />
        <path
           d="m 163.65161,213.35401 v 3.00963 h -0.34397 v -3.00963 z"
           style="font-style:normal;font-variant:normal;font-weight:normal;font-stretch:normal;font-size:4.02583218px;line-height:1.25;font-family:'Roboto Condensed';-inkscape-font-specification:'Roboto Condensed, ';letter-spacing:0px;word-spacing:0px;fill:#ffffff;fill-opacity:1;stroke:none;stroke-width:0.25161451"
           id="path898"
           inkscape:connector-curvature="0" />
        <path
           d="m 164.01614,213.6806 v -0.32659 h 1.77031 v 0.32659 h -0.71598 v 2.68304 h -0.34022 v -2.68304 z"
           style="font-style:normal;font-variant:normal;font-weight:normal;font-stretch:normal;font-size:4.02583218px;line-height:1.25;font-family:'Roboto Condensed';-inkscape-font-specification:'Roboto Condensed, ';letter-spacing:0px;word-spacing:0px;fill:#ffffff;fill-opacity:1;stroke:none;stroke-width:0.25161451"
           id="path900"
           inkscape:connector-curvature="0" />
        <path
           d="m 165.82758,216.36364 0.87674,-3.00963 h 0.29537 l 0.87674,3.00963 h -0.35145 l -0.21311,-0.78754 h -0.91974 l -0.21311,0.78754 z m 0.65428,-1.11414 h 0.74028 l -0.37014,-1.36632 z"
           style="font-style:normal;font-variant:normal;font-weight:normal;font-stretch:normal;font-size:4.02583218px;line-height:1.25;font-family:'Roboto Condensed';-inkscape-font-specification:'Roboto Condensed, ';letter-spacing:0px;word-spacing:0px;fill:#ffffff;fill-opacity:1;stroke:none;stroke-width:0.25161451"
           id="path902"
           inkscape:connector-curvature="0" />
        <path
           d="m 169.65982,216.03911 v 0.32453 h -1.41139 v -3.00963 h 0.34397 v 2.6851 z"
           style="font-style:normal;font-variant:normal;font-weight:normal;font-stretch:normal;font-size:4.02583218px;line-height:1.25;font-family:'Roboto Condensed';-inkscape-font-specification:'Roboto Condensed, ';letter-spacing:0px;word-spacing:0px;fill:#ffffff;fill-opacity:1;stroke:none;stroke-width:0.25161451"
           id="path904"
           inkscape:connector-curvature="0" />
        <path
           d="m 170.42813,213.35401 v 3.00963 h -0.34397 v -3.00963 z"
           style="font-style:normal;font-variant:normal;font-weight:normal;font-stretch:normal;font-size:4.02583218px;line-height:1.25;font-family:'Roboto Condensed';-inkscape-font-specification:'Roboto Condensed, ';letter-spacing:0px;word-spacing:0px;fill:#ffffff;fill-opacity:1;stroke:none;stroke-width:0.25161451"
           id="path906"
           inkscape:connector-curvature="0" />
        <path
           d="m 172.21714,215.60296 q 0,-0.21084 -0.10094,-0.33486 -0.10095,-0.12402 -0.43183,-0.25425 -0.33089,-0.13229 -0.5253,-0.33485 -0.19442,-0.20258 -0.19442,-0.54778 0,-0.3514 0.21124,-0.58498 0.21125,-0.23358 0.56829,-0.23358 0.39819,0 0.60756,0.27906 0.20937,0.27905 0.20937,0.63045 h -0.34397 q 0,-0.25218 -0.11216,-0.41754 -0.11216,-0.16537 -0.3608,-0.16537 -0.22619,0 -0.33087,0.14056 -0.10282,0.13849 -0.10282,0.34726 0,0.19017 0.12151,0.31626 0.12337,0.12609 0.38136,0.22945 0.40004,0.14469 0.5739,0.35967 0.17385,0.21497 0.17385,0.56637 0,0.36794 -0.21685,0.58705 -0.21498,0.21911 -0.58325,0.21911 -0.21311,0 -0.41313,-0.10337 -0.20003,-0.10337 -0.32901,-0.30593 -0.12712,-0.20464 -0.12712,-0.50436 h 0.34396 q 0,0.308 0.15329,0.44856 0.15516,0.14056 0.37201,0.14056 0.22432,0 0.34023,-0.12816 0.1159,-0.13023 0.1159,-0.34934 z"
           style="font-style:normal;font-variant:normal;font-weight:normal;font-stretch:normal;font-size:4.02583218px;line-height:1.25;font-family:'Roboto Condensed';-inkscape-font-specification:'Roboto Condensed, ';letter-spacing:0px;word-spacing:0px;fill:#ffffff;fill-opacity:1;stroke:none;stroke-width:0.25161451"
           id="path908"
           inkscape:connector-curvature="0" />
        <path
           d="m 174.16504,215.80761 0.71036,-2.4536 h 0.43931 v 3.00963 h -0.3421 v -1.17409 l 0.0318,-1.16581 -0.71036,2.3399 h -0.26172 l -0.71037,-2.34405 0.0318,1.16996 v 1.17409 h -0.34209 v -3.00963 h 0.44117 z"
           style="font-style:normal;font-variant:normal;font-weight:normal;font-stretch:normal;font-size:4.02583218px;line-height:1.25;font-family:'Roboto Condensed';-inkscape-font-specification:'Roboto Condensed, ';letter-spacing:0px;word-spacing:0px;fill:#ffffff;fill-opacity:1;stroke:none;stroke-width:0.25161451"
           id="path910"
           inkscape:connector-curvature="0" />
      </g>
    </g>
  </g>
</svg>
