<?xml version="1.0" encoding="UTF-8" standalone="no"?>
<!-- Created with Inkscape (http://www.inkscape.org/) -->

<svg
   xmlns:dc="http://purl.org/dc/elements/1.1/"
   xmlns:cc="http://creativecommons.org/ns#"
   xmlns:rdf="http://www.w3.org/1999/02/22-rdf-syntax-ns#"
   xmlns:svg="http://www.w3.org/2000/svg"
   xmlns="http://www.w3.org/2000/svg"
   xmlns:sodipodi="http://sodipodi.sourceforge.net/DTD/sodipodi-0.dtd"
   xmlns:inkscape="http://www.inkscape.org/namespaces/inkscape"
   width="95.690971mm"
   height="48.800926mm"
   viewBox="0 0 95.690974 48.800924"
   version="1.1"
   id="svg8"
   inkscape:version="0.92.5 (2060ec1f9f, 2020-04-08)"
   sodipodi:docname="casp_publications.svg"
   inkscape:export-filename="/home/blair/Desktop/working_papers.png"
   inkscape:export-xdpi="400"
   inkscape:export-ydpi="400">
  <defs
     id="defs2" />
  <sodipodi:namedview
     id="base"
     pagecolor="#000000"
     bordercolor="#666666"
     borderopacity="1.0"
     inkscape:pageopacity="0"
     inkscape:pageshadow="2"
     inkscape:zoom="1.8"
     inkscape:cx="182.53296"
     inkscape:cy="119.76657"
     inkscape:document-units="mm"
     inkscape:current-layer="layer1"
     showgrid="false"
     inkscape:window-width="1920"
     inkscape:window-height="1023"
     inkscape:window-x="0"
     inkscape:window-y="0"
     inkscape:window-maximized="1"
     inkscape:pagecheckerboard="true"
     fit-margin-top="0"
     fit-margin-left="0"
     fit-margin-right="0"
     fit-margin-bottom="0" />
  <metadata
     id="metadata5">
    <rdf:RDF>
      <cc:Work
         rdf:about="">
        <dc:format>image/svg+xml</dc:format>
        <dc:type
           rdf:resource="http://purl.org/dc/dcmitype/StillImage" />
        <dc:title />
      </cc:Work>
    </rdf:RDF>
  </metadata>
  <g
     inkscape:label="Layer 1"
     inkscape:groupmode="layer"
     id="layer1"
     transform="translate(-19.10799,-197.99602)">
    <rect
       style="opacity:1;fill:#800000;fill-opacity:1;stroke:none;stroke-width:0.52916664;stroke-miterlimit:4;stroke-dasharray:none;stroke-opacity:1"
       id="rect1056"
       width="95.690971"
       height="48.800926"
       x="19.10799"
       y="197.99602" />
    <g
       id="g1054"
       transform="translate(3.038695,-1.1057989)">
      <path
         inkscape:connector-curvature="0"
         id="path820"
         style="font-style:normal;font-variant:normal;font-weight:normal;font-stretch:normal;font-size:9.499403px;line-height:1.25;font-family:'Roboto Condensed';-inkscape-font-specification:'Roboto Condensed, ';letter-spacing:0px;word-spacing:0px;fill:#ffffff;fill-opacity:1;stroke:none;stroke-width:0.2374851"
         d="m 33.447576,218.54749 h 0.766052 q -0.04163,1.16273 -0.524579,1.82935 -0.482945,0.66663 -1.428021,0.66663 -0.911767,0 -1.448836,-0.85783 -0.532906,-0.863 -0.532906,-2.31511 v -1.39009 q 0,-1.44694 0.541233,-2.30477 0.545395,-0.863 1.511286,-0.863 0.882625,0 1.361407,0.65113 0.478783,0.65111 0.520416,1.86551 h -0.766052 q -0.04579,-0.88883 -0.299759,-1.2919 -0.253963,-0.40824 -0.816012,-0.40824 -0.666132,0 -0.978381,0.64078 -0.308086,0.64079 -0.308086,1.70015 v 1.40043 q 0,0.98703 0.270616,1.67432 0.274779,0.68729 0.945074,0.68729 0.628663,0 0.878463,-0.39273 0.249798,-0.39274 0.308085,-1.29192 z" />
      <path
         inkscape:connector-curvature="0"
         id="path822"
         style="font-style:normal;font-variant:normal;font-weight:normal;font-stretch:normal;font-size:9.499403px;line-height:1.25;font-family:'Roboto Condensed';-inkscape-font-specification:'Roboto Condensed, ';letter-spacing:0px;word-spacing:0px;fill:#ffffff;fill-opacity:1;stroke:none;stroke-width:0.2374851"
         d="m 34.771514,220.94011 1.952598,-7.52408 h 0.657805 l 1.952599,7.52408 h -0.782704 l -0.474619,-1.96887 h -2.048356 l -0.474619,1.96887 z m 1.457163,-2.78535 h 1.648676 l -0.824338,-3.41581 z" />
      <path
         inkscape:connector-curvature="0"
         id="path824"
         style="font-style:normal;font-variant:normal;font-weight:normal;font-stretch:normal;font-size:9.499403px;line-height:1.25;font-family:'Roboto Condensed';-inkscape-font-specification:'Roboto Condensed, ';letter-spacing:0px;word-spacing:0px;fill:#ffffff;fill-opacity:1;stroke:none;stroke-width:0.2374851"
         d="m 40.92907,217.98939 v 2.95072 h -0.766052 v -7.52408 h 1.931783 q 0.878461,0 1.344753,0.64595 0.470456,0.64596 0.470456,1.64848 0,1.0852 -0.466292,1.67949 -0.462129,0.59427 -1.336427,0.59944 z m 0,-3.75688 v 2.94556 h 1.165731 q 0.557885,0 0.803521,-0.40824 0.245636,-0.40824 0.245636,-1.04903 0,-0.57878 -0.245636,-1.03354 -0.245636,-0.45475 -0.803521,-0.45475 z" />
      <path
         inkscape:connector-curvature="0"
         id="path826"
         style="font-style:normal;font-variant:normal;font-weight:normal;font-stretch:normal;font-size:9.499403px;line-height:1.25;font-family:'Roboto Condensed';-inkscape-font-specification:'Roboto Condensed, ';letter-spacing:0px;word-spacing:0px;fill:#ffffff;fill-opacity:1;stroke:none;stroke-width:0.2374851"
         d="m 45.687749,213.41603 v 7.52408 h -0.766052 v -7.52408 z" />
      <path
         inkscape:connector-curvature="0"
         id="path828"
         style="font-style:normal;font-variant:normal;font-weight:normal;font-stretch:normal;font-size:9.499403px;line-height:1.25;font-family:'Roboto Condensed';-inkscape-font-specification:'Roboto Condensed, ';letter-spacing:0px;word-spacing:0px;fill:#ffffff;fill-opacity:1;stroke:none;stroke-width:0.2374851"
         d="m 46.499599,214.23251 v -0.81648 h 3.942667 v 0.81648 h -1.594553 v 6.7076 h -0.757725 v -6.7076 z" />
      <path
         inkscape:connector-curvature="0"
         id="path830"
         style="font-style:normal;font-variant:normal;font-weight:normal;font-stretch:normal;font-size:9.499403px;line-height:1.25;font-family:'Roboto Condensed';-inkscape-font-specification:'Roboto Condensed, ';letter-spacing:0px;word-spacing:0px;fill:#ffffff;fill-opacity:1;stroke:none;stroke-width:0.2374851"
         d="m 50.533859,220.94011 1.952599,-7.52408 h 0.657805 l 1.9526,7.52408 h -0.782706 l -0.474618,-1.96887 h -2.048356 l -0.474619,1.96887 z m 1.457164,-2.78535 h 1.648676 l -0.824338,-3.41581 z" />
      <path
         inkscape:connector-curvature="0"
         id="path832"
         style="font-style:normal;font-variant:normal;font-weight:normal;font-stretch:normal;font-size:9.499403px;line-height:1.25;font-family:'Roboto Condensed';-inkscape-font-specification:'Roboto Condensed, ';letter-spacing:0px;word-spacing:0px;fill:#ffffff;fill-opacity:1;stroke:none;stroke-width:0.2374851"
         d="m 59.068673,220.1288 v 0.81131 h -3.14331 v -7.52408 h 0.766051 v 6.71277 z" />
      <path
         inkscape:connector-curvature="0"
         id="path834"
         style="font-style:normal;font-variant:normal;font-weight:normal;font-stretch:normal;font-size:9.499403px;line-height:1.25;font-family:'Roboto Condensed';-inkscape-font-specification:'Roboto Condensed, ';letter-spacing:0px;word-spacing:0px;fill:#ffffff;fill-opacity:1;stroke:none;stroke-width:0.2374851"
         d="m 61.462584,220.94011 1.952599,-7.52408 h 0.657805 l 1.9526,7.52408 h -0.782706 l -0.474618,-1.96887 h -2.048356 l -0.474619,1.96887 z m 1.457163,-2.78535 h 1.648677 l -0.824339,-3.41581 z" />
      <path
         inkscape:connector-curvature="0"
         id="path836"
         style="font-style:normal;font-variant:normal;font-weight:normal;font-stretch:normal;font-size:9.499403px;line-height:1.25;font-family:'Roboto Condensed';-inkscape-font-specification:'Roboto Condensed, ';letter-spacing:0px;word-spacing:0px;fill:#ffffff;fill-opacity:1;stroke:none;stroke-width:0.2374851"
         d="m 69.506128,219.03842 q 0,-0.5271 -0.22482,-0.83716 -0.224819,-0.31005 -0.961728,-0.63562 -0.736908,-0.33073 -1.169895,-0.83716 -0.432985,-0.50642 -0.432985,-1.36942 0,-0.8785 0.470456,-1.46244 0.470456,-0.58395 1.26565,-0.58395 0.886788,0 1.353081,0.69763 0.466292,0.69764 0.466292,1.57614 h -0.766051 q 0,-0.63045 -0.2498,-1.04386 -0.2498,-0.41341 -0.803522,-0.41341 -0.503762,0 -0.736908,0.35139 -0.228983,0.34624 -0.228983,0.86816 0,0.47543 0.270616,0.79066 0.274779,0.31522 0.849318,0.57361 0.890952,0.36172 1.278141,0.89917 0.387189,0.53743 0.387189,1.41593 0,0.91983 -0.482946,1.46761 -0.478782,0.54777 -1.298957,0.54777 -0.474619,0 -0.920094,-0.25839 -0.445476,-0.25838 -0.732745,-0.76481 -0.283107,-0.51159 -0.283107,-1.2609 h 0.766052 q 0,0.76997 0.341392,1.12137 0.345557,0.3514 0.828502,0.3514 0.499599,0 0.757725,-0.32039 0.258127,-0.32555 0.258127,-0.87333 z" />
      <path
         inkscape:connector-curvature="0"
         id="path838"
         style="font-style:normal;font-variant:normal;font-weight:normal;font-stretch:normal;font-size:9.499403px;line-height:1.25;font-family:'Roboto Condensed';-inkscape-font-specification:'Roboto Condensed, ';letter-spacing:0px;word-spacing:0px;fill:#ffffff;fill-opacity:1;stroke:none;stroke-width:0.2374851"
         d="m 73.998354,217.98939 v 2.95072 h -0.766052 v -7.52408 h 1.931783 q 0.878462,0 1.344754,0.64595 0.470456,0.64596 0.470456,1.64848 0,1.0852 -0.466293,1.67949 -0.462129,0.59427 -1.336427,0.59944 z m 0,-3.75688 v 2.94556 h 1.165731 q 0.557886,0 0.803522,-0.40824 0.245636,-0.40824 0.245636,-1.04903 0,-0.57878 -0.245636,-1.03354 -0.245636,-0.45475 -0.803522,-0.45475 z" />
      <path
         inkscape:connector-curvature="0"
         id="path840"
         style="font-style:normal;font-variant:normal;font-weight:normal;font-stretch:normal;font-size:9.499403px;line-height:1.25;font-family:'Roboto Condensed';-inkscape-font-specification:'Roboto Condensed, ';letter-spacing:0px;word-spacing:0px;fill:#ffffff;fill-opacity:1;stroke:none;stroke-width:0.2374851"
         d="m 81.900343,217.83437 q 0,1.5968 -0.545396,2.40294 -0.545395,0.80616 -1.486306,0.80616 -0.895115,0 -1.461327,-0.78548 -0.562049,-0.78549 -0.578702,-2.33061 v -1.40043 q 0,-1.59164 0.562049,-2.40295 0.562048,-0.81133 1.473816,-0.81133 0.932585,0 1.47798,0.79582 0.545396,0.79581 0.557886,2.34611 z m -0.757725,-1.31776 q 0,-1.24023 -0.328903,-1.79834 -0.328902,-0.5581 -0.949238,-0.5581 -0.591192,0 -0.936747,0.5581 -0.341394,0.55811 -0.341394,1.79834 v 1.31776 q 0,1.2454 0.345557,1.80867 0.349719,0.5581 0.936748,0.5581 0.624499,0 0.945074,-0.55293 0.32474,-0.55294 0.328903,-1.78284 z" />
      <path
         inkscape:connector-curvature="0"
         id="path842"
         style="font-style:normal;font-variant:normal;font-weight:normal;font-stretch:normal;font-size:9.499403px;line-height:1.25;font-family:'Roboto Condensed';-inkscape-font-specification:'Roboto Condensed, ';letter-spacing:0px;word-spacing:0px;fill:#ffffff;fill-opacity:1;stroke:none;stroke-width:0.2374851"
         d="m 88.699052,213.41603 -1.203201,7.52408 H 86.80474 l -1.007526,-5.48286 -0.06245,-0.44442 -0.06245,0.44442 -1.053321,5.48286 h -0.686949 l -1.207364,-7.52408 h 0.761888 l 0.757726,5.14697 0.0791,0.84232 0.120736,-0.73897 0.970054,-5.25032 h 0.632826 l 0.940911,5.25032 0.120736,0.76482 0.08743,-0.87334 0.741072,-5.1418 z" />
      <path
         inkscape:connector-curvature="0"
         id="path844"
         style="font-style:normal;font-variant:normal;font-weight:normal;font-stretch:normal;font-size:9.499403px;line-height:1.25;font-family:'Roboto Condensed';-inkscape-font-specification:'Roboto Condensed, ';letter-spacing:0px;word-spacing:0px;fill:#ffffff;fill-opacity:1;stroke:none;stroke-width:0.2374851"
         d="m 89.577514,220.94011 v -7.52408 h 3.218246 v 0.81648 h -2.452192 v 2.41847 h 2.13995 v 0.81131 h -2.13995 v 2.66651 h 2.493831 v 0.81131 z" />
      <path
         inkscape:connector-curvature="0"
         id="path846"
         style="font-style:normal;font-variant:normal;font-weight:normal;font-stretch:normal;font-size:9.499403px;line-height:1.25;font-family:'Roboto Condensed';-inkscape-font-specification:'Roboto Condensed, ';letter-spacing:0px;word-spacing:0px;fill:#ffffff;fill-opacity:1;stroke:none;stroke-width:0.2374851"
         d="m 96.730102,220.94011 -1.0783,-3.0489 h -1.065807 v 3.0489 h -0.766058 v -7.52408 h 1.694481 q 0.903433,0 1.353077,0.56844 0.453799,0.56328 0.453799,1.68981 0,1.45729 -0.949237,1.99989 l 1.178219,3.20393 v 0.0621 z m -2.144107,-6.7076 v 2.84737 h 0.920093 q 0.524574,0 0.786865,-0.40824 0.262291,-0.41341 0.262291,-0.99736 0,-0.65111 -0.237311,-1.04386 -0.237303,-0.39791 -0.803515,-0.39791 z" />
    </g>
    <text
       xml:space="preserve"
       style="font-style:normal;font-weight:normal;font-size:7.05555534px;line-height:1.25;font-family:sans-serif;letter-spacing:0px;word-spacing:0px;fill:#000000;fill-opacity:1;stroke:none;stroke-width:0.26458332"
       x="46.386593"
       y="232.49437"
       id="text913"><tspan
         sodipodi:role="line"
         id="tspan911"
         x="46.386593"
         y="232.49437"
         style="font-style:normal;font-variant:normal;font-weight:normal;font-stretch:normal;font-family:'Ubuntu Condensed';-inkscape-font-specification:'Ubuntu Condensed, ';fill:#ffffff;fill-opacity:1;stroke-width:0.26458332">Working Papers</tspan></text>
  </g>
</svg>
